<?xml version="1.0" encoding="UTF-8" standalone="no"?>
<svg
   id="gpj_hor_vert_rvb_sl10072024"
   viewBox="0 0 1417.3199 330.11998"
   version="1.1"
   sodipodi:docname="logo2.svg"
   width="1417.3199"
   height="330.12"
   inkscape:version="1.2.2 (732a01da63, 2022-12-09)"
   xmlns:inkscape="http://www.inkscape.org/namespaces/inkscape"
   xmlns:sodipodi="http://sodipodi.sourceforge.net/DTD/sodipodi-0.dtd"
   xmlns="http://www.w3.org/2000/svg"
   xmlns:svg="http://www.w3.org/2000/svg">
  <sodipodi:namedview
     id="namedview67"
     pagecolor="#ffffff"
     bordercolor="#666666"
     borderopacity="1.0"
     inkscape:showpageshadow="2"
     inkscape:pageopacity="0.0"
     inkscape:pagecheckerboard="0"
     inkscape:deskcolor="#d1d1d1"
     showgrid="false"
     inkscape:zoom="0.67711366"
     inkscape:cx="686.00005"
     inkscape:cy="190.51455"
     inkscape:window-width="1920"
     inkscape:window-height="1009"
     inkscape:window-x="1912"
     inkscape:window-y="-8"
     inkscape:window-maximized="1"
     inkscape:current-layer="gpj_hor_vert_rvb_sl10072024" />
  <defs
     id="defs4">
    <style
       id="style2">
      .cls-1 {
        fill: #0a6e46;
      }

      .cls-1, .cls-2 {
        stroke-width: 0px;
      }

      .cls-2 {
        fill: #4b4b4b;
      }
    </style>
  </defs>
  <path
     class="cls-1"
     d="m 467.86,126.96 12.26,25.5 h 22.33 c -0.46,17.81 -19.37,27.9 -35.8,27.99 -26.19,0.14 -48.47,-22.41 -48.38,-48.56 0.11,-33.13 26.96,-47.97 47.33,-47.91 14.71,0.04 27.61,7.13 38.1,17.41 l 17.93,-18.8 c -12.8,-16.44 -34.85,-25.15 -55.8,-25.15 -44.83,0 -76.43,33.32 -76.55,74.45 -0.09,32.67 22.99,75.14 76.12,75.08 27.24,-0.03 66.25,-18.09 66.04,-64.38 0,-1.32 -0.24,-11.31 -1.16,-15.62 h -62.42 z"
     id="path6" />
  <path
     class="cls-1"
     d="m 618.98,94.68 c -8.74,-3.27 -19.49,-2.78 -27.95,1.78 -6.41,3.33 -12.19,8.55 -16.21,14.8 l -0.2,-16.43 h -26.53 v 110.04 h 27.15 v -58.62 c -0.03,-7.05 2.4,-13.11 7.17,-17.93 11.63,-11.75 26.23,-6.04 30.01,-3.88 l 7.21,-29.5 -0.66,-0.26 z"
     id="path8" />
  <path
     class="cls-1"
     d="m 1253.76,93.03 c -14.33,0.07 -29.15,8.24 -36.89,20.3 -5.17,-13.92 -18.02,-20.49 -32.66,-20.3 -12.23,0.16 -24.63,6.33 -32.26,15.82 l -0.27,-13.97 h -26.52 v 110.04 h 27.15 V 139.1 c -0.31,-12.74 11.33,-22.01 23.66,-22.01 13.01,0 18.91,10.77 18.52,23.04 v 64.79 h 27.16 v -65.61 c -0.29,-12.82 11.42,-22.59 23.87,-22.22 13.79,-0.58 19.41,10.28 18.93,23.25 v 64.59 h 27.16 V 138.7 c -0.5,-39.53 -21.15,-45.74 -37.86,-45.66 z"
     id="path10" />
  <path
     class="cls-1"
     d="m 212.58,204.92 h 67.74 C 274.26,229.9 239.78,282.77 167,282.77 101.55,282.77 47.73,228.36 47.73,165.09 47.73,101.82 98.98,47.38 167,47.38 c 47.95,0 93.26,29.47 112.07,72.63 h 50.48 C 307.75,42.96 239.78,0 165.06,0 74.04,0 0,74.05 0,165.06 c 0,91.01 74.05,165.06 165.06,165.06 112.41,0 170.34,-89.73 169.53,-167.36 H 188.23 Z"
     id="path12" />
  <polygon
     class="cls-1"
     points="366.07,299.42 341.71,341.58 423.83,341.58 448.17,299.42 448.18,299.42 426.43,215.2 424.07,215.2 402.32,299.42 "
     id="polygon14"
     transform="translate(-259.95,-136.66)" />
  <path
     class="cls-1"
     d="m 930.64,93.03 c -12.38,-0.08 -25.44,5.49 -33.55,14.47 l -0.21,-12.62 h -26.52 v 146.8 h 27.15 v -48.46 c 8.43,8.3 21.39,13.56 33.54,13.55 30.25,-0.01 50.54,-27.7 50.21,-56.97 -0.4,-35.07 -19.52,-56.57 -50.62,-56.77 z m -4.73,89.68 c -18.03,0.04 -29.41,-15.62 -29.43,-32.91 -0.01,-17.33 11.39,-32.76 29.43,-32.71 17.91,0.05 29.03,15.44 29.02,32.71 -0.01,17.17 -11.24,32.88 -29.02,32.91 z"
     id="path16" />
  <path
     class="cls-1"
     d="m 1075.78,108.42 c -7.92,-10.55 -20.29,-15.94 -33.75,-15.81 -30.47,-0.52 -51.62,27.45 -50.82,56.97 -0.66,28.61 19.5,57.49 49.17,57.39 13.46,0 26.4,-6 35.19,-15.83 v 13.77 h 27.36 V 94.87 h -27.15 z m -28.4,74.5 c -18.19,0 -28.81,-15.98 -28.81,-33.33 0,-17.18 10.83,-32.92 28.81,-32.91 17.94,0 29.21,15.63 29.22,32.91 0,17.44 -11.07,33.32 -29.22,33.33 z"
     id="path18" />
  <path
     class="cls-1"
     d="m 675.49,92.61 c -38.97,0 -57.41,30.19 -57.41,57.18 0,29.33 20.56,57.18 57.41,57.18 33.87,0 57.41,-24.52 57.41,-57.18 0,-30.86 -21,-57.18 -57.41,-57.18 z m 0,90.31 c -17.83,0 -30.03,-15.77 -30.04,-33.12 0,-17.42 12.11,-33.12 30.04,-33.12 17.93,0 30.05,15.7 30.04,33.12 0,17.35 -12.21,33.12 -30.04,33.12 z"
     id="path20" />
  <path
     class="cls-1"
     d="m 820.54,160.65 c 0.35,13.03 -10.72,23.49 -23.67,23.04 -14.6,0.37 -22.58,-9.49 -22.02,-26.54 V 94.83 H 747.9 v 67.67 c 0.14,44.74 36.99,49.57 56.3,40.76 6.67,-3.04 12.3,-7.18 16.7,-12.84 l 0.27,14.45 h 26.32 V 94.83 h -26.95 z"
     id="path22" />
  <path
     class="cls-1"
     d="m 1390.17,94.88 v 13.55 c -7.92,-10.55 -20.29,-15.94 -33.75,-15.81 -30.47,-0.52 -51.62,27.45 -50.82,56.97 -0.66,28.61 19.5,57.49 49.17,57.39 13.46,0 26.4,-6 35.19,-15.83 v 13.77 h 27.36 V 94.88 Z m -28.4,88.04 c -18.19,0 -28.81,-15.98 -28.81,-33.33 0,-17.18 10.83,-32.92 28.81,-32.91 17.94,0 29.21,15.63 29.22,32.91 0,17.44 -11.07,33.32 -29.22,33.33 z"
     id="path24" />
  <g
     id="g64"
     transform="translate(-259.95,-136.66)">
    <path
       class="cls-2"
       d="m 696.28,407.27 c -1.87,-1.1 -3.97,-1.65 -6.32,-1.65 h -16.61 v 39.16 h 8.39 v -13.71 h 8.22 c 2.35,0 4.46,-0.57 6.32,-1.71 1.86,-1.14 3.35,-2.67 4.45,-4.62 1.1,-1.94 1.65,-4.12 1.65,-6.54 0,-2.42 -0.55,-4.53 -1.65,-6.43 -1.1,-1.9 -2.58,-3.4 -4.45,-4.5 z m -3.16,13.68 c -0.43,0.78 -1,1.41 -1.71,1.87 -0.71,0.47 -1.51,0.7 -2.41,0.7 h -7.38 V 413.17 H 689 c 0.89,0 1.7,0.22 2.41,0.67 0.71,0.45 1.28,1.04 1.71,1.79 0.43,0.75 0.64,1.62 0.64,2.63 0,1.01 -0.21,1.9 -0.64,2.69 z"
       id="path26" />
    <path
       class="cls-2"
       d="m 742.21,429.06 c 1.98,-1.12 3.53,-2.64 4.67,-4.56 1.14,-1.92 1.71,-4.06 1.71,-6.41 0,-2.35 -0.57,-4.51 -1.71,-6.38 -1.14,-1.86 -2.7,-3.35 -4.67,-4.45 -1.98,-1.1 -4.18,-1.65 -6.6,-1.65 h -17.34 v 39.16 h 8.11 v -14.04 h 6.19 l 7.91,14.04 9.73,0.06 -8.89,-15.35 c 0.3,-0.14 0.6,-0.26 0.89,-0.43 z M 726.38,412.9 h 7.78 c 1.23,0 2.31,0.23 3.24,0.7 0.93,0.47 1.64,1.11 2.13,1.93 0.48,0.82 0.73,1.79 0.73,2.91 0,1.04 -0.21,1.99 -0.62,2.83 -0.41,0.84 -1,1.49 -1.76,1.96 -0.76,0.47 -1.65,0.7 -2.66,0.7 h -8.84 v -11.02 z"
       id="path28" />
    <path
       class="cls-2"
       d="m 796.89,410.6 c -1.81,-1.83 -3.92,-3.24 -6.32,-4.25 -2.4,-1.01 -5.06,-1.51 -7.97,-1.51 -2.91,0 -5.52,0.5 -7.94,1.51 -2.42,1.01 -4.54,2.42 -6.35,4.22 -1.81,1.8 -3.2,3.94 -4.17,6.41 -0.97,2.46 -1.45,5.17 -1.45,8.11 0,2.94 0.48,5.6 1.45,8.08 0.97,2.48 2.36,4.62 4.17,6.43 1.81,1.81 3.92,3.22 6.35,4.22 2.42,1.01 5.09,1.51 8,1.51 2.91,0 5.51,-0.5 7.92,-1.51 2.41,-1.01 4.51,-2.42 6.32,-4.25 1.81,-1.83 3.2,-3.97 4.17,-6.43 0.97,-2.46 1.45,-5.15 1.45,-8.06 0,-2.91 -0.48,-5.59 -1.45,-8.06 -0.97,-2.46 -2.36,-4.61 -4.17,-6.43 z m -3.75,19.41 c -0.58,1.49 -1.37,2.79 -2.38,3.89 -1.01,1.1 -2.2,1.96 -3.58,2.57 -1.38,0.62 -2.91,0.92 -4.59,0.92 -1.68,0 -3.15,-0.31 -4.53,-0.92 -1.38,-0.62 -2.59,-1.47 -3.64,-2.57 -1.04,-1.1 -1.84,-2.4 -2.38,-3.89 -0.54,-1.49 -0.81,-3.13 -0.81,-4.92 0,-1.79 0.27,-3.43 0.81,-4.92 0.54,-1.49 1.33,-2.79 2.38,-3.89 1.04,-1.1 2.26,-1.96 3.64,-2.57 1.38,-0.62 2.89,-0.92 4.53,-0.92 1.64,0 3.21,0.31 4.59,0.92 1.38,0.61 2.57,1.47 3.58,2.57 1.01,1.1 1.8,2.4 2.38,3.89 0.58,1.49 0.87,3.13 0.87,4.92 0,1.79 -0.29,3.43 -0.87,4.92 z"
       id="path30" />
    <polygon
       class="cls-2"
       points="825,444.78 833.39,444.78 833.39,413.17 845.14,413.17 845.14,405.62 813.59,405.62 813.59,413.17 825,413.17 "
       id="polygon32" />
    <polygon
       class="cls-2"
       points="884.24,421.23 868.69,421.23 868.69,413.01 886.93,413.01 886.93,405.62 860.47,405.62 860.47,444.78 887.32,444.78 887.32,437.4 868.69,437.4 868.69,428.39 884.24,428.39 "
       id="polygon34" />
    <path
       class="cls-2"
       d="m 913.78,416.28 c 1.04,-1.06 2.27,-1.89 3.66,-2.49 1.39,-0.6 2.9,-0.9 4.5,-0.9 1.19,0 2.32,0.18 3.38,0.53 1.06,0.36 2.08,0.86 3.05,1.51 0.97,0.65 1.88,1.43 2.74,2.32 l 5.26,-5.82 c -1.08,-1.34 -2.38,-2.5 -3.89,-3.47 -1.51,-0.97 -3.17,-1.71 -4.98,-2.21 -1.81,-0.5 -3.65,-0.75 -5.51,-0.75 -2.87,0 -5.54,0.5 -8,1.51 -2.46,1.01 -4.61,2.42 -6.43,4.22 -1.82,1.8 -3.24,3.93 -4.25,6.38 -1.01,2.44 -1.51,5.1 -1.51,7.97 0,2.87 0.48,5.66 1.45,8.14 0.97,2.48 2.34,4.62 4.11,6.43 1.77,1.81 3.86,3.21 6.26,4.2 2.41,0.99 5.04,1.48 7.92,1.48 1.9,0 3.79,-0.23 5.65,-0.7 1.86,-0.47 3.55,-1.11 5.06,-1.93 1.51,-0.82 2.73,-1.73 3.66,-2.74 l -4.14,-6.55 c -0.75,0.78 -1.59,1.47 -2.54,2.07 -0.95,0.6 -1.99,1.06 -3.1,1.4 -1.12,0.34 -2.28,0.5 -3.47,0.5 -1.83,0 -3.5,-0.29 -5.01,-0.87 -1.51,-0.58 -2.81,-1.4 -3.89,-2.46 -1.08,-1.06 -1.92,-2.35 -2.52,-3.86 -0.6,-1.51 -0.9,-3.2 -0.9,-5.06 0,-1.86 0.31,-3.5 0.92,-5.01 0.62,-1.51 1.44,-2.8 2.49,-3.86 z"
       id="path36" />
    <polygon
       class="cls-2"
       points="959.48,444.78 967.88,444.78 967.88,413.17 979.62,413.17 979.62,405.62 948.07,405.62 948.07,413.17 959.48,413.17 "
       id="polygon38" />
    <polygon
       class="cls-2"
       points="1000.49,437.57 993.95,437.57 993.95,444.78 1015.43,444.78 1015.43,437.57 1008.88,437.57 1008.88,412.84 1015.43,412.84 1015.43,405.62 993.95,405.62 993.95,412.84 1000.49,412.84 "
       id="polygon40" />
    <path
       class="cls-2"
       d="m 1063.79,410.6 c -1.81,-1.83 -3.92,-3.24 -6.32,-4.25 -2.4,-1.01 -5.06,-1.51 -7.97,-1.51 -2.91,0 -5.52,0.5 -7.94,1.51 -2.42,1.01 -4.54,2.42 -6.35,4.22 -1.81,1.8 -3.2,3.94 -4.17,6.41 -0.97,2.46 -1.45,5.17 -1.45,8.11 0,2.94 0.48,5.6 1.45,8.08 0.97,2.48 2.36,4.62 4.17,6.43 1.81,1.81 3.92,3.22 6.35,4.22 2.42,1.01 5.09,1.51 8,1.51 2.91,0 5.51,-0.5 7.92,-1.51 2.41,-1.01 4.51,-2.42 6.32,-4.25 1.81,-1.83 3.2,-3.97 4.17,-6.43 0.97,-2.46 1.45,-5.15 1.45,-8.06 0,-2.91 -0.48,-5.59 -1.45,-8.06 -0.97,-2.46 -2.36,-4.61 -4.17,-6.43 z m -3.75,19.41 c -0.58,1.49 -1.37,2.79 -2.38,3.89 -1.01,1.1 -2.2,1.96 -3.58,2.57 -1.38,0.62 -2.91,0.92 -4.59,0.92 -1.68,0 -3.15,-0.31 -4.53,-0.92 -1.38,-0.62 -2.59,-1.47 -3.64,-2.57 -1.04,-1.1 -1.84,-2.4 -2.38,-3.89 -0.54,-1.49 -0.81,-3.13 -0.81,-4.92 0,-1.79 0.27,-3.43 0.81,-4.92 0.54,-1.49 1.33,-2.79 2.38,-3.89 1.04,-1.1 2.26,-1.96 3.64,-2.57 1.38,-0.62 2.89,-0.92 4.53,-0.92 1.64,0 3.21,0.31 4.59,0.92 1.38,0.61 2.57,1.47 3.58,2.57 1.01,1.1 1.8,2.4 2.38,3.89 0.58,1.49 0.87,3.13 0.87,4.92 0,1.79 -0.29,3.43 -0.87,4.92 z"
       id="path42" />
    <path
       class="cls-2"
       d="m 1111.87,416.31 c 0,1.6 0.02,3.09 0.06,4.45 0.04,1.36 0.08,2.65 0.14,3.86 0.06,1.21 0.13,2.39 0.22,3.52 0.09,1.14 0.2,2.26 0.31,3.36 0.03,0.28 0.07,0.59 0.1,0.88 l -19.79,-26.75 h -7.5 v 39.16 h 8.22 v -14.1 c 0,-0.75 0,-1.46 -0.03,-2.13 -0.02,-0.67 -0.05,-1.38 -0.08,-2.13 -0.03,-0.75 -0.1,-1.62 -0.2,-2.63 -0.09,-1.01 -0.21,-2.19 -0.34,-3.55 -0.05,-0.54 -0.11,-1.13 -0.17,-1.75 l 19.66,26.28 h 7.61 v -39.16 h -8.22 v 10.68 z"
       id="path44" />
    <path
       class="cls-2"
       d="m 1171.06,413.06 h 7.16 v 18.85 c 0,1.12 -0.21,2.11 -0.64,2.96 -0.43,0.86 -1.04,1.53 -1.85,2.01 -0.8,0.49 -1.73,0.73 -2.77,0.73 -0.6,0 -1.16,-0.06 -1.68,-0.2 -0.52,-0.13 -1.04,-0.37 -1.54,-0.73 -0.5,-0.35 -1.03,-0.81 -1.57,-1.37 -0.54,-0.56 -1.13,-1.27 -1.76,-2.13 l -4.87,5.09 c 0.56,1.08 1.25,2.06 2.07,2.94 0.82,0.88 1.73,1.61 2.74,2.21 1.01,0.6 2.13,1.06 3.36,1.4 1.23,0.33 2.55,0.5 3.97,0.5 1.83,0 3.51,-0.3 5.06,-0.89 1.55,-0.6 2.9,-1.45 4.06,-2.55 1.16,-1.1 2.05,-2.41 2.69,-3.94 0.63,-1.53 0.95,-3.23 0.95,-5.09 v -19.8 h 6.04 v -7.44 h -21.43 v 7.44 z"
       id="path46" />
    <path
       class="cls-2"
       d="m 1233.77,429.23 c 0,1.57 -0.36,2.97 -1.09,4.22 -0.73,1.25 -1.72,2.25 -2.96,2.99 -1.25,0.75 -2.64,1.12 -4.17,1.12 -1.53,0 -2.84,-0.37 -4.06,-1.12 -1.21,-0.75 -2.17,-1.74 -2.88,-2.99 -0.71,-1.25 -1.06,-2.66 -1.06,-4.22 v -23.66 h -8.45 v 24.17 c 0,2.95 0.71,5.58 2.13,7.92 1.42,2.33 3.37,4.16 5.85,5.48 2.48,1.32 5.3,1.99 8.48,1.99 3.18,0 5.95,-0.66 8.45,-1.99 2.5,-1.32 4.45,-3.15 5.85,-5.48 1.4,-2.33 2.1,-4.97 2.1,-7.92 v -24.17 h -8.17 v 23.66 z"
       id="path48" />
    <path
       class="cls-2"
       d="m 1284.11,429.06 c 1.98,-1.12 3.53,-2.64 4.67,-4.56 1.14,-1.92 1.71,-4.06 1.71,-6.41 0,-2.35 -0.57,-4.51 -1.71,-6.38 -1.14,-1.86 -2.7,-3.35 -4.67,-4.45 -1.98,-1.1 -4.18,-1.65 -6.6,-1.65 h -17.34 v 39.16 h 8.11 v -14.04 h 6.19 l 7.91,14.04 9.73,0.06 -8.89,-15.35 c 0.3,-0.14 0.6,-0.26 0.89,-0.43 z m -15.83,-16.16 h 7.78 c 1.23,0 2.31,0.23 3.24,0.7 0.93,0.47 1.64,1.11 2.13,1.93 0.48,0.82 0.73,1.79 0.73,2.91 0,1.04 -0.21,1.99 -0.62,2.83 -0.41,0.84 -1,1.49 -1.76,1.96 -0.76,0.47 -1.65,0.7 -2.66,0.7 h -8.84 v -11.02 z"
       id="path50" />
    <polygon
       class="cls-2"
       points="1313.26,437.57 1306.71,437.57 1306.71,444.78 1328.19,444.78 1328.19,437.57 1321.65,437.57 1321.65,412.84 1328.19,412.84 1328.19,405.62 1306.71,405.62 1306.71,412.84 1313.26,412.84 "
       id="polygon52" />
    <path
       class="cls-2"
       d="m 1375.66,411.08 c -1.7,-1.73 -3.71,-3.08 -6.04,-4.03 -2.33,-0.95 -4.93,-1.43 -7.8,-1.43 h -16.06 v 39.16 h 16.06 c 2.87,0 5.48,-0.48 7.83,-1.43 2.35,-0.95 4.36,-2.29 6.04,-4.03 1.68,-1.73 2.96,-3.8 3.86,-6.21 0.89,-2.41 1.34,-5.04 1.34,-7.92 0,-2.88 -0.45,-5.56 -1.34,-7.94 -0.9,-2.39 -2.19,-4.45 -3.89,-6.18 z m -4,19.1 c -0.49,1.49 -1.2,2.75 -2.15,3.78 -0.95,1.03 -2.1,1.83 -3.44,2.41 -1.34,0.58 -2.85,0.87 -4.53,0.87 h -7.38 v -24.06 h 7.38 c 1.68,0 3.19,0.29 4.53,0.87 1.34,0.58 2.49,1.39 3.44,2.43 0.95,1.04 1.67,2.3 2.15,3.78 0.48,1.47 0.73,3.12 0.73,4.95 0,1.83 -0.24,3.49 -0.73,4.98 z"
       id="path54" />
    <polygon
       class="cls-2"
       points="1401.59,437.57 1395.04,437.57 1395.04,444.78 1416.53,444.78 1416.53,437.57 1409.98,437.57 1409.98,412.84 1416.53,412.84 1416.53,405.62 1395.04,405.62 1395.04,412.84 1401.59,412.84 "
       id="polygon56" />
    <path
       class="cls-2"
       d="m 1464.89,410.6 c -1.81,-1.83 -3.92,-3.24 -6.32,-4.25 -2.4,-1.01 -5.06,-1.51 -7.97,-1.51 -2.91,0 -5.52,0.5 -7.94,1.51 -2.42,1.01 -4.54,2.42 -6.35,4.22 -1.81,1.8 -3.2,3.94 -4.17,6.41 -0.97,2.46 -1.45,5.17 -1.45,8.11 0,2.94 0.48,5.6 1.45,8.08 0.97,2.48 2.36,4.62 4.17,6.43 1.81,1.81 3.92,3.22 6.35,4.22 2.42,1.01 5.07,1.51 7.94,1.51 2.51,0 4.81,-0.4 6.95,-1.14 l 5.03,6.74 6.15,-4.53 -4.57,-6.15 c 0.25,-0.23 0.5,-0.44 0.74,-0.68 1.81,-1.83 3.2,-3.97 4.17,-6.43 0.97,-2.46 1.45,-5.15 1.45,-8.06 0,-2.91 -0.48,-5.59 -1.45,-8.06 -0.97,-2.46 -2.36,-4.61 -4.17,-6.43 z m -10.94,15.94 -6.32,4.36 4.74,6.35 c -0.57,0.08 -1.16,0.14 -1.77,0.14 -1.64,0 -3.15,-0.31 -4.53,-0.92 -1.38,-0.62 -2.59,-1.47 -3.64,-2.57 -1.04,-1.1 -1.84,-2.4 -2.38,-3.89 -0.54,-1.49 -0.81,-3.13 -0.81,-4.92 0,-1.79 0.27,-3.43 0.81,-4.92 0.54,-1.49 1.33,-2.79 2.38,-3.89 1.04,-1.1 2.26,-1.96 3.64,-2.57 1.38,-0.62 2.89,-0.92 4.53,-0.92 1.64,0 3.21,0.31 4.59,0.92 1.38,0.61 2.57,1.47 3.58,2.57 1.01,1.1 1.8,2.4 2.38,3.89 0.58,1.49 0.87,3.13 0.87,4.92 0,1.79 -0.29,3.43 -0.87,4.92 -0.51,1.31 -1.19,2.46 -2.03,3.47 l -5.16,-6.94 z"
       id="path58" />
    <path
       class="cls-2"
       d="m 1510.84,429.23 c 0,1.57 -0.36,2.97 -1.09,4.22 -0.73,1.25 -1.72,2.25 -2.96,2.99 -1.25,0.75 -2.64,1.12 -4.17,1.12 -1.53,0 -2.84,-0.37 -4.06,-1.12 -1.21,-0.75 -2.17,-1.74 -2.88,-2.99 -0.71,-1.25 -1.06,-2.66 -1.06,-4.22 v -23.66 h -8.45 v 24.17 c 0,2.95 0.71,5.58 2.13,7.92 1.42,2.33 3.37,4.16 5.85,5.48 2.48,1.32 5.3,1.99 8.48,1.99 3.18,0 5.95,-0.66 8.45,-1.99 2.5,-1.32 4.45,-3.15 5.85,-5.48 1.4,-2.33 2.1,-4.97 2.1,-7.92 v -24.17 h -8.17 v 23.66 z"
       id="path60" />
    <polygon
       class="cls-2"
       points="1561.02,428.39 1561.02,421.23 1545.47,421.23 1545.47,413.01 1563.71,413.01 1563.71,405.62 1537.25,405.62 1537.25,444.78 1564.1,444.78 1564.1,437.4 1545.47,437.4 1545.47,428.39 "
       id="polygon62" />
  </g>
</svg>
