<?xml version="1.0" encoding="UTF-8"?>
<svg id="Calque_1" data-name="Calque 1" xmlns="http://www.w3.org/2000/svg" viewBox="0 0 2333.14 775.95">
  <defs>
    <style>
      .cls-1 {
        fill: #ddfe55;
      }

      .cls-2 {
        fill: #c4d6e9;
      }
    </style>
  </defs>
  <g>
    <polygon class="cls-2" points="1008.95 360.28 938.59 360.28 938.59 206.93 918.29 206.93 918.29 378.33 1008.95 378.33 1008.95 360.28"/>
    <path class="cls-2" d="M1040.35,371.9c7.22,5.79,16.31,8.68,27.29,8.68,10.07,0,18.04-1.58,23.9-4.74,5.86-3.16,11.42-8.04,16.69-14.66h.9l3.84,17.14h14.43v-82.31c0-14.13-3.53-24.43-10.6-30.9-7.07-6.46-17.97-9.7-32.7-9.7-7.82,0-15.33,1.01-22.55,3.04-7.22,2.03-13.46,4.47-18.72,7.33l6.09,14.88c4.96-2.4,10.3-4.55,16.01-6.43,5.71-1.88,11.73-2.82,18.04-2.82,7.97,0,14.13,1.96,18.49,5.86,4.36,3.91,6.54,10.9,6.54,20.97v7.22l-20.52.68c-19.7.6-34.28,4.17-43.75,10.71-9.47,6.54-14.21,15.82-14.21,27.85s3.61,21.39,10.82,27.17ZM1058.73,327.13c5.79-4.21,16.2-6.61,31.24-7.22l17.82-.68v10.83c0,11.73-3.42,20.41-10.26,26.05-6.84,5.64-15.3,8.46-25.37,8.46-6.47,0-11.76-1.58-15.9-4.74-4.14-3.16-6.2-8.12-6.2-14.88,0-7.67,2.89-13.6,8.68-17.82Z"/>
    <path class="cls-2" d="M1234.19,315.63c0-14.13,2.33-24.95,6.99-32.47,4.66-7.52,13.08-11.28,25.26-11.28,16.54,0,24.81,9.55,24.81,28.64v77.8h19.62v-66.75c0-12.93,2.52-22.78,7.55-29.54,5.04-6.77,13.42-10.15,25.15-10.15,16.39,0,24.58,9.55,24.58,28.64v77.8h19.62v-78.71c0-15.48-3.38-26.76-10.15-33.83-6.77-7.06-16.99-10.6-30.67-10.6-7.97,0-15.41,1.66-22.33,4.96-6.92,3.31-12.4,8.42-16.46,15.34h-1.13c-5.72-13.53-18.04-20.3-36.98-20.3-7.22,0-14.02,1.54-20.41,4.62-6.39,3.08-11.47,7.78-15.22,14.1h-1.13l-2.93-16.46h-16.01v120.88h19.85v-62.69Z"/>
    <path class="cls-2" d="M1468.97,380.58c7.82,0,15.18-1.47,22.1-4.4,6.91-2.93,12.33-7.56,16.24-13.87h.9l2.93,16.01h16.24v-120.88h-19.85v62.92c0,14.13-2.59,24.96-7.78,32.47-5.19,7.52-14.47,11.28-27.85,11.28-17.89,0-26.84-9.62-26.84-28.87v-77.8h-20.07v79.16c0,15.33,3.68,26.5,11.05,33.49,7.36,6.99,18.34,10.49,32.93,10.49Z"/>
    <path class="cls-2" d="M1569.57,343.15c0,9.77,1.65,17.36,4.96,22.78,3.31,5.41,7.63,9.21,12.97,11.39,5.34,2.18,11.16,3.27,17.48,3.27,3.61,0,7.36-.34,11.28-1.01,3.91-.68,6.91-1.54,9.02-2.59v-15.11c-1.95.76-4.51,1.35-7.67,1.8-3.16.45-6.24.68-9.25.68-5.56,0-10.11-1.76-13.64-5.3-3.53-3.53-5.3-8.98-5.3-16.35v-69.91h34.95v-15.34h-34.95v-27.74h-11.73l-7.89,25.71-17.36,7.89v9.47h17.14v70.36Z"/>
    <path class="cls-2" d="M1696.59,380.58c7.82,0,15.18-1.47,22.1-4.4,6.91-2.93,12.32-7.56,16.24-13.87h.9l2.93,16.01h16.24v-120.88h-19.85v62.92c0,14.13-2.59,24.96-7.78,32.47-5.19,7.52-14.47,11.28-27.85,11.28-17.89,0-26.84-9.62-26.84-28.87v-77.8h-20.07v79.16c0,15.33,3.68,26.5,11.05,33.49,7.36,6.99,18.34,10.49,32.93,10.49Z"/>
    <path class="cls-2" d="M1810.89,373.59c8.72,4.66,18.87,6.99,30.44,6.99,8.27,0,15.41-.64,21.43-1.92,6.01-1.28,12.1-3.27,18.27-5.97v-17.37c-6.31,2.71-12.44,4.78-18.38,6.2-5.94,1.43-12.74,2.14-20.41,2.14-12.03,0-21.39-3.57-28.08-10.71-6.69-7.14-10.19-17.55-10.49-31.23h82.76v-11.95c0-10.97-1.99-20.56-5.98-28.75-3.98-8.19-9.74-14.55-17.25-19.06-7.52-4.51-16.39-6.77-26.61-6.77s-20.04,2.56-28.08,7.67c-8.04,5.11-14.28,12.4-18.72,21.88-4.44,9.47-6.65,20.82-6.65,34.05s2.44,24.88,7.33,34.05c4.88,9.17,11.69,16.09,20.41,20.75ZM1813.93,280.57c5.49-6.09,12.97-9.13,22.44-9.13,10.07,0,17.44,3.2,22.1,9.58,4.66,6.39,7.06,14.7,7.22,24.92h-61.57c1.05-10.82,4.32-19.28,9.81-25.37Z"/>
    <rect class="cls-2" x="1917.11" y="206.93" width="19.84" height="171.39"/>
    <rect class="cls-2" x="1976.43" y="206.93" width="19.84" height="171.39"/>
    <path class="cls-2" d="M2103.34,261.96c-7.52-4.51-16.39-6.77-26.61-6.77s-20.04,2.56-28.08,7.67c-8.04,5.11-14.28,12.4-18.72,21.88-4.44,9.47-6.65,20.82-6.65,34.05s2.44,24.88,7.33,34.05c4.88,9.17,11.69,16.09,20.41,20.75,8.72,4.66,18.86,6.99,30.44,6.99,8.27,0,15.41-.64,21.42-1.92,6.01-1.28,12.1-3.27,18.27-5.97v-17.37c-6.31,2.71-12.44,4.78-18.38,6.2-5.94,1.43-12.74,2.14-20.41,2.14-12.03,0-21.39-3.57-28.08-10.71-6.69-7.14-10.19-17.55-10.49-31.23h82.76v-12.01c0-10.95-2-20.51-5.97-28.69-3.98-8.19-9.74-14.55-17.25-19.06ZM2044.26,305.93c1.05-10.82,4.32-19.28,9.81-25.37,5.49-6.09,12.97-9.13,22.44-9.13,10.07,0,17.44,3.2,22.1,9.58,4.66,6.39,7.06,14.7,7.22,24.92h-61.57Z"/>
  </g>
  <g>
    <path class="cls-2" d="M853.97,431.76c-.76,3.34-1.33,6.91-1.71,10.7-.38,3.8-.68,7.21-.91,10.24-.23,3.04-.34,4.86-.34,5.46h-.91c-3.19-5.16-6.76-9.37-10.7-12.64-3.95-3.26-9.49-4.89-16.62-4.89-9.11,0-17.19,2.58-24.24,7.74-7.06,5.16-13.02,11.92-17.87,20.26-4.86,8.35-8.5,17.34-10.93,26.98-2.43,9.64-3.64,18.94-3.64,27.89,0,11.54,1.63,20.68,4.89,27.43,3.26,6.75,7.59,11.65,12.98,14.68,5.39,3.03,11.19,4.55,17.42,4.55,7.89,0,14.38-1.67,19.46-5.01,5.08-3.34,9.52-7.44,13.32-12.29h.91l-1.59,15.03h29.59l36.65-173.02h-38.02l-7.74,36.88ZM841.45,504.38c-1.06,5.77-2.66,11.35-4.78,16.73-2.13,5.39-4.82,9.83-8.08,13.32-3.27,3.49-7.1,5.23-11.5,5.23-8.35,0-12.52-5.99-12.52-17.98,0-6.07.68-12.07,2.05-17.98,1.37-5.92,3.26-11.34,5.69-16.28,2.43-4.93,5.2-8.88,8.31-11.84,3.11-2.96,6.49-4.44,10.13-4.44,3.94,0,6.98,1.63,9.11,4.89,2.12,3.27,3.19,7.63,3.19,13.09,0,4.41-.53,9.49-1.59,15.25Z"/>
    <path class="cls-2" d="M1007.54,450.08c-7.51-6.3-18.25-9.45-32.21-9.45-11.69,0-21.93,2.24-30.73,6.72-8.8,4.48-16.16,10.51-22.08,18.1-5.92,7.59-10.36,16.2-13.32,25.84-2.96,9.64-4.44,19.62-4.44,29.94,0,15.94,4.44,28.08,13.32,36.43,8.88,8.35,20.9,12.52,36.08,12.52,9.71,0,18.06-.91,25.04-2.73,6.98-1.82,13.81-4.4,20.49-7.74v-27.55c-6.98,3.49-13.2,6.03-18.67,7.63-5.46,1.59-11.46,2.39-17.99,2.39-13.51,0-20.26-6.38-20.26-19.12,0-1.37.07-2.5.23-3.41h5.92c23.83,0,41.43-4.1,52.82-12.29,11.38-8.2,17.07-18.97,17.07-32.33,0-10.32-3.76-18.63-11.27-24.93ZM975.33,489.35c-4.86,3.79-12.98,5.69-24.36,5.69h-4.1c.91-5.01,2.65-9.64,5.24-13.89,2.58-4.25,5.61-7.66,9.11-10.25,3.49-2.58,7.13-3.87,10.93-3.87,6.98,0,10.47,3.19,10.47,9.56,0,4.71-2.43,8.96-7.29,12.75Z"/>
    <path class="cls-2" d="M1083.64,470c2.2-1.52,4.89-2.28,8.08-2.28,4.7,0,9.56.95,14.57,2.84,5.01,1.9,9.71,4.21,14.12,6.94l12.07-25.72c-6.37-3.95-12.94-6.79-19.69-8.54-6.76-1.74-13.93-2.62-21.51-2.62-16.24,0-28.53,3.49-36.88,10.47-8.35,6.98-12.52,16.7-12.52,29.14,0,8.05,1.94,14.65,5.81,19.81,3.87,5.16,9.75,9.87,17.64,14.12,5.01,2.73,8.8,5.05,11.38,6.94,2.58,1.9,4.32,3.64,5.24,5.23.91,1.59,1.37,3.3,1.37,5.12,0,3.95-1.97,6.72-5.92,8.31-3.95,1.59-7.89,2.39-11.84,2.39-12.14,0-24.21-3.34-36.2-10.02v30.73c9.71,4.86,22.46,7.28,38.25,7.28s29.71-3.72,39.5-11.15c9.79-7.44,14.68-18.59,14.68-33.46,0-8.04-2.24-14.83-6.72-20.38-4.48-5.54-10.74-10.28-18.78-14.23-5.92-3.03-10.06-5.54-12.41-7.51-2.36-1.97-3.53-4.17-3.53-6.6,0-3.03,1.1-5.31,3.3-6.83Z"/>
    <path class="cls-2" d="M1365.67,440.64c-8.5,0-15.94,2.13-22.31,6.37-6.37,4.25-11.99,10.17-16.85,17.76h-.91c-1.52-7.59-4.67-13.51-9.45-17.76-4.78-4.25-11.42-6.37-19.92-6.37s-15.98,2.05-21.97,6.15c-6,4.1-11.35,10.09-16.05,17.98h-.91l2.05-21.86h-29.59l-26.41,124.98h37.79l12.07-56c2.88-13.05,6.56-23.14,11.04-30.28,4.47-7.13,9.75-10.7,15.82-10.7,3.03,0,5.38.99,7.06,2.96,1.67,1.97,2.5,5.09,2.5,9.33,0,1.82-.19,3.95-.57,6.38-.38,2.43-.8,4.71-1.25,6.83l-15.02,71.48h38.02l11.38-55.78c2.58-12.29,6.07-22.23,10.47-29.82,4.4-7.59,9.94-11.38,16.62-11.38s9.56,3.87,9.56,11.61c0,2.43-.19,4.82-.57,7.17-.38,2.35-.8,4.59-1.25,6.72l-14.8,71.48h37.79l14.57-69.66c1.67-8.04,2.51-15.1,2.51-21.17,0-11.69-2.66-20.68-7.97-26.98-5.31-6.3-13.13-9.45-23.45-9.45Z"/>
    <path class="cls-2" d="M1480.56,440.64c-11.38,0-21.33,2.16-29.82,6.49-8.5,4.33-15.59,10.28-21.28,17.87-5.69,7.59-9.98,16.28-12.86,26.07-2.88,9.79-4.32,20.15-4.32,31.07,0,15.03,4.29,26.79,12.86,35.29,8.57,8.5,20.22,12.75,34.94,12.75,11.53,0,21.55-2.2,30.05-6.6,8.5-4.4,15.59-10.36,21.29-17.87,5.69-7.51,9.94-16.12,12.75-25.84,2.81-9.71,4.21-19.88,4.21-30.51,0-15.48-4.25-27.47-12.75-35.97-8.5-8.5-20.19-12.75-35.06-12.75ZM1486.7,513.71c-2.13,7.89-5.16,14.34-9.1,19.35-3.95,5.01-8.5,7.51-13.66,7.51-8.96,0-13.43-5.99-13.43-17.98,0-5.92.57-11.91,1.71-17.99,1.14-6.07,2.85-11.72,5.12-16.96,2.27-5.24,5.04-9.45,8.31-12.63,3.26-3.19,7.02-4.78,11.27-4.78,4.55,0,7.86,1.71,9.9,5.12,2.05,3.41,3.07,7.93,3.07,13.55,0,8.65-1.06,16.92-3.19,24.81Z"/>
    <path class="cls-2" d="M1609.83,416.96h-24.82l-15.02,26.41-22.76,9.56-3.87,18.67h17.07l-11.38,52.82c-.46,2.58-.88,5.35-1.25,8.31-.38,2.96-.57,5.66-.57,8.08,0,10.78,2.88,18.36,8.65,22.76,5.77,4.4,13.81,6.6,24.13,6.6,6.98,0,13.28-.61,18.9-1.82,5.61-1.21,10.47-2.81,14.57-4.78v-28.46c-3.49,1.37-6.83,2.47-10.02,3.3-3.19.84-6.23,1.25-9.11,1.25-2.58,0-4.63-.6-6.15-1.82-1.52-1.21-2.28-3.19-2.28-5.92,0-2.12.38-4.93,1.14-8.42l11.16-51.9h31.64l6.37-28.68h-31.87l5.46-25.95Z"/>
    <path class="cls-2" d="M1737.56,442.91l-6.15,15.71h-.91c-2.89-5.46-6.72-9.82-11.5-13.09-4.78-3.26-10.97-4.89-18.55-4.89-9.11,0-17.19,2.58-24.25,7.74-7.06,5.16-12.98,11.92-17.76,20.26-4.78,8.35-8.42,17.38-10.93,27.09-2.51,9.72-3.76,19.05-3.76,28,0,11.38,1.63,20.45,4.89,27.21,3.26,6.75,7.59,11.65,12.98,14.68,5.38,3.03,11.19,4.55,17.42,4.55,7.59,0,13.96-1.59,19.12-4.78,5.16-3.19,9.71-7.36,13.66-12.52h.91l-1.37,15.03h29.37l26.64-124.98h-29.82ZM1719.35,504.83c-1.06,5.92-2.81,11.54-5.24,16.85-2.43,5.31-5.35,9.64-8.77,12.98-3.41,3.34-7.1,5.01-11.04,5.01-8.05,0-12.07-5.99-12.07-17.98,0-6.07.68-12.07,2.05-17.98,1.37-5.92,3.22-11.34,5.58-16.28,2.35-4.93,5.08-8.88,8.2-11.84,3.11-2.96,6.49-4.44,10.13-4.44,3.94,0,7.02,1.59,9.22,4.78,2.2,3.19,3.3,7.28,3.3,12.29,0,5.62-.46,11.16-1.37,16.62Z"/>
    <path class="cls-2" d="M1837.42,446.44c-6.07,3.87-11.69,10.05-16.85,18.55h-.91l2.05-22.08h-29.59l-26.41,124.98h37.79l11.84-55.55c2.73-12.44,7.02-21.52,12.86-27.21,5.84-5.69,12.48-8.54,19.92-8.54,2.58,0,4.93.19,7.06.57,2.12.38,3.94.88,5.46,1.48l8.2-37.11c-2.73-.61-6.07-.91-10.02-.91-8.2,0-15.33,1.94-21.4,5.81Z"/>
    <path class="cls-2" d="M1967.66,394.88l-7.74,36.88c-.76,3.34-1.33,6.91-1.71,10.7-.38,3.8-.68,7.21-.91,10.24-.23,3.04-.34,4.86-.34,5.46h-.91c-3.19-5.16-6.76-9.37-10.7-12.64-3.95-3.26-9.49-4.89-16.62-4.89-9.11,0-17.19,2.58-24.25,7.74-7.06,5.16-13.02,11.92-17.87,20.26-4.86,8.35-8.5,17.34-10.93,26.98-2.43,9.64-3.64,18.94-3.64,27.89,0,11.54,1.63,20.68,4.9,27.43,3.26,6.75,7.59,11.65,12.98,14.68,5.39,3.03,11.19,4.55,17.42,4.55,7.89,0,14.38-1.67,19.46-5.01,5.08-3.34,9.52-7.44,13.32-12.29h.91l-1.59,15.03h29.59l36.65-173.02h-38.02ZM1947.39,504.38c-1.06,5.77-2.66,11.35-4.78,16.73-2.13,5.39-4.82,9.83-8.08,13.32-3.27,3.49-7.1,5.23-11.5,5.23-8.35,0-12.52-5.99-12.52-17.98,0-6.07.68-12.07,2.05-17.98,1.37-5.92,3.26-11.34,5.69-16.28,2.43-4.93,5.2-8.88,8.31-11.84,3.11-2.96,6.49-4.44,10.13-4.44,3.94,0,6.98,1.63,9.1,4.89,2.12,3.27,3.19,7.63,3.19,13.09,0,4.41-.53,9.49-1.59,15.25Z"/>
    <path class="cls-2" d="M2050.13,470c2.2-1.52,4.89-2.28,8.08-2.28,4.7,0,9.56.95,14.57,2.84,5.01,1.9,9.71,4.21,14.11,6.94l12.07-25.72c-6.38-3.95-12.94-6.79-19.69-8.54-6.75-1.74-13.93-2.62-21.51-2.62-16.24,0-28.53,3.49-36.88,10.47-8.35,6.98-12.52,16.7-12.52,29.14,0,8.05,1.94,14.65,5.81,19.81,3.87,5.16,9.75,9.87,17.64,14.12,5.01,2.73,8.8,5.05,11.38,6.94,2.58,1.9,4.32,3.64,5.23,5.23.91,1.59,1.37,3.3,1.37,5.12,0,3.95-1.97,6.72-5.92,8.31-3.95,1.59-7.89,2.39-11.84,2.39-12.14,0-24.21-3.34-36.2-10.02v30.73c9.71,4.86,22.46,7.28,38.25,7.28s29.71-3.72,39.5-11.15c9.79-7.44,14.68-18.59,14.68-33.46,0-8.04-2.24-14.83-6.72-20.38-4.48-5.54-10.74-10.28-18.78-14.23-5.92-3.03-10.05-5.54-12.41-7.51-2.36-1.97-3.53-4.17-3.53-6.6,0-3.03,1.1-5.31,3.3-6.83Z"/>
  </g>
  <g>
    <path class="cls-1" d="M334.39,431.13c5.62-9.22,10.76-22.2,5.14-32.6-1.26-2.34-3.23-4.26-5.49-5.63-7-3.93-14.18-3.79-22.67,3.36-5.75,4.99-9.33,9.99-13.65,18.19l-.03.05c-6.68,12.58-14.28,23.8-24.22,33.87-11.41,11.74-19.96,15.88-24.35,18.41-.19.11-.16.39.05.46.14.04.32.09.54.13.89.17,2.49.32,4.41.46,30.79,2.62,58.15-9.53,73.51-26.96,2.15-2.43,4.66-6.18,6.76-9.73"/>
    <path class="cls-1" d="M407.75,454.51c1.83-3.71,4.18-8.95,5.86-13.92,4.57-13,7.55-30.55-2.2-42.04-2.2-2.59-5.15-4.46-8.34-5.57-9.77-3.05-18.7-.98-27.4,10.19-5.85,7.75-8.49,13.68-12.22,26.3l-.02.07c-5.02,17.46-13.93,39.09-25.49,55.98-11.91,17.42-20.93,25.24-25.67,29.54-.13.12-.08.35.1.39.2.04.52.06.94.05,1.16-.03,3.19-.26,5.62-.6,39.11-4.86,73.49-29.32,88.82-60.38"/>
    <path class="cls-1" d="M488.51,399.03c-3.03-2.28-6.7-3.58-10.45-4.01-11.38-.91-20.59,3.55-27.31,17.85-4.45,9.87-5.87,16.98-6.81,31.64v.08c-1.16,20.24-5.52,45.97-13.93,67.22-8.41,21.25-16.08,31.99-20.28,37.96-.28.4.07.93.55.82.1-.02.21-.05.32-.08,1.25-.32,3.41-1.07,5.97-2.03,41.36-14.94,72.74-50.04,81.77-87.63,1.08-4.49,2.34-10.77,2.94-16.6,1.77-15.27.68-35.11-12.77-45.21"/>
    <path class="cls-1" d="M706.46,411.9c-18.4-14.57-35.51-35.21-46.94-52.63l-.05-.07c-8.37-12.55-13.28-18.14-22.32-24.64-13.33-9.26-23.81-8.5-33.47-1.84-3.11,2.3-5.71,5.36-7.23,8.94-6.77,15.9,2.46,34.1,11.88,46.77,3.53,4.88,7.88,9.81,11.15,13.25,27.35,28.8,73.3,43.89,117.77,35.92,2.77-.46,5.08-.9,6.35-1.26.31-.09.57-.17.76-.25.3-.12.3-.54,0-.68-6.71-3.12-19.17-8.66-37.93-23.52"/>
    <path class="cls-1" d="M764.3,344.84c-17.78-10.14-35.25-25.69-47.4-39.2l-.05-.05c-8.87-9.72-13.84-13.9-22.49-18.31-12.71-6.24-21.65-4.2-29.1,2.82-2.38,2.4-4.22,5.37-5.06,8.66-3.75,14.6,6.6,29.08,16.4,38.77,3.68,3.74,8.08,7.42,11.36,9.96,27.37,21.23,68.99,28.2,106.28,15.47,2.33-.76,4.26-1.44,5.31-1.92,0,0,.02,0,.02-.01.48-.22.43-.92-.08-1.07-6.32-1.84-17.64-5.1-35.2-15.11"/>
    <path class="cls-1" d="M832.53,291.22c-5.07-.34-14.56-.32-29.89-5.8-13.36-4.66-25.12-11.39-36.66-19.75l-.05-.03c-7.48-5.46-12.9-8.37-20.26-10.32-10.77-2.68-17.29.36-21.84,6.96-1.43,2.23-2.35,4.81-2.45,7.47-.46,11.81,9.86,21.2,18.97,27.01,3.44,2.26,7.35,4.52,10.35,5.76,21.46,8.88,51.38,7.75,77.87-8.17,1.66-.96,3.03-1.81,3.76-2.35.14-.11.27-.2.36-.29.19-.17.08-.48-.17-.5"/>
    <path class="cls-1" d="M835.97,229.59c-45.25-16.7-88.95-23.67-129.89-20.7-32.8,2.38-63.9,11.1-92.43,25.92-25.39,13.18-44,28.86-55.14,39.69l-19.34,20.61c-.18.16-.36.31-.52.47-1.32,1.32-2.58,1.32-3.53.98-5.57-3.4-9.93-9.77-11.29-17.59-1.71-9.87,1.85-19.19,8.34-23.82.11-.09.2-.19.31-.27l.76-.6,1.26-1.07s.72-.63.72-1.19c0-1.11-2.38-2.33-2.38-2.33-3.95-2.15-11.32-5.34-22.28-6.87-2.22-.31-4.5-.28-6.71.07-6.85,1.09-13.19,4.29-18.13,9.16,0,0-10.79,8.89-18.5,41.88-1.21,4.2-2.29,8.43-3.2,12.7-.56,2.62-1.17,5.32-1.89,8.14v.04c-1.02,4.25-2.68,7.97-5.24,7.65-43.13-5.48-83.15-3.51-118.95,5.87-28.7,7.52-54.76,19.78-77.46,36.45-20.21,14.84-33.97,30.5-41.94,41.02-6.27,8.27-10.01,14.66-11.67,17.7-.59,1.08-.22,2.42.83,3.07l.35.22c.98.6,2.24.39,2.98-.49,4.18-4.99,18.87-21.24,44.45-36.29,17.92-10.54,37.61-18.44,58.52-23.48,26.15-6.3,54.31-8.13,83.68-5.42,1.11.1,2.22.2,3.33.3,3.43.3,6.98.61,10.43,1.09,6.9.96,23.07,3.22,41.65,3.76,22.16.65,40.68-1.35,55.04-5.94,7.48-2.39,10.61-2.7,13.71,3.64,12.07,24.66,26.27,82.04,27.9,110.27v.16c.03.14,1.79,14.17,1.28,32.61-.85,30.66-7.22,49.77-12.41,60.41-.99,2.02,1.2,4.12,3.18,3.05.66-.36,16.31-9,29.54-30.9,7.73-12.8,13.02-27.51,15.71-43.71,3.35-20.16,2.66-42.71-2.04-67.02-4.27-21.56-16.81-56.63-22.8-75.67-2.04-6.49-3.52-11.18-4.03-13.12-.96-3.6.01-4.91,1.95-7.54.27-.37.55-.75.82-1.13.09-.13,9.56-13.08,27.21-29.11,16.26-14.77,42.99-35.24,78.03-48.94,32.66-12.77,76.8-17.32,108.07-18.89,33.98-1.71,60.54-.36,60.8-.35h0c2.65.14,3.41-3.56.92-4.48"/>
  </g>
</svg>